<?xml version="1.0" encoding="utf-8"?>
<!-- Generator: Adobe Illustrator 15.0.2, SVG Export Plug-In . SVG Version: 6.00 Build 0)  -->
<!DOCTYPE svg PUBLIC "-//W3C//DTD SVG 1.1//EN" "http://www.w3.org/Graphics/SVG/1.1/DTD/svg11.dtd">
<svg version="1.1" id="Layer_1" xmlns="http://www.w3.org/2000/svg" xmlns:xlink="http://www.w3.org/1999/xlink" x="0px" y="0px"
	 width="841.89px" height="595.28px" viewBox="0 0 841.89 595.28" enable-background="new 0 0 841.89 595.28" xml:space="preserve">
<path fill="#079347" d="M102.281,232.47c-8.204,17.392-10.287,36.13-10.287,60.994c0,26.085,2.205,47.76,10.287,66.866h-8.083
	c-10.776-24.371-17.391-46.539-17.391-66.866c0-18.739,6.615-38.947,17.391-60.994H102.281z"/>
<path d="M210.767,349.051c-5.849,1.023-11.26,2.779-15.94,4.385c-7.898,2.633-15.65,5.12-28.957,5.12
	c-34.076,0.438-63.324-28.224-62.884-61.716c-0.44-34.075,26.906-63.326,65.369-63.326c11.555,0,20.331,2.343,26.473,4.096
	c3.655,1.026,7.312,2.049,9.358,2.049c1.169,0,2.633-0.145,3.949-0.293h-0.147c2.488-0.585,3.804-0.148,3.804,2.339
	c-0.146,1.315-0.146,2.34-0.146,3.364c0,1.171,0,2.63,0.146,4.534c0,0.584,0.145,1.316,0.145,1.9
	c0.148,2.05,0.148,4.387,0.148,5.264c0,1.757-1.023,4.68-2.485,4.68c-1.316,0-2.634-1.314-3.806-3.069
	c-3.653-5.412-7.458-9.947-12.138-12.432h0.149c-7.021-3.508-14.627-5.264-22.522-5.264c-30.567,0-50.015,22.376-50.015,52.355
	c-0.295,29.687,20.471,58.497,46.359,58.497c7.457,0,27.786-4.681,29.395-16.672c0-0.877,0-3.362-0.148-4.679
	c-0.145-6.581-0.291-11.112-0.439-13.891c-0.29-4.535-0.874-8.192-1.753-9.947c-1.17-2.633-3.51-4.972-6.728-7.021v-0.729
	c7.46,0.729,13.31,1.023,17.113,1.023c2.338,0,8.188-0.587,11.99-0.878c0.587,0,2.926-0.146,3.365-0.146l-0.148,0.582
	c-4.825,2.487-6.142,7.313-6.871,29.982v15.062C213.4,345.976,212.813,348.609,210.767,349.051z"/>
<path d="M229.824,357.239v-0.878c4.679-2.34,8.191-7.458,8.481-13.455c0.147-9.796,0.294-26.323,0.294-44.311
	c0-15.063-0.438-31.003-1.169-45.629c-0.438-7.168-2.194-12.723-8.484-16.964v-0.732c7.458,0.732,13.309,1.023,17.112,1.023
	c2.194,0,5.557-0.146,9.943-0.584c1.023,0,2.048-0.146,2.779-0.146c1.023,0,2.049,0,4.24-0.438v0.878
	c-5.408,2.778-7.457,9.505-8.041,17.551c0,1.022-0.147,2.191-0.147,3.214c-0.148,3.069-0.292,6.435-0.292,12.14
	c-0.145,4.534-0.145,14.33-0.145,29.248c0,13.603,0.437,28.227,1.168,43.875c0.438,6.58,3.071,11.847,8.774,14.332v0.878
	c-6.288-0.438-13.306-0.878-17.986-0.878C241.962,356.361,236.258,356.655,229.824,357.239z"/>
<path d="M380.785,349.051c-5.85,1.023-11.261,2.779-15.942,4.385c-7.897,2.633-15.649,5.12-28.957,5.12
	c-34.076,0.438-63.323-28.224-62.885-61.716c-0.438-34.075,26.909-63.326,65.371-63.326c11.554,0,20.329,2.343,26.47,4.096
	c3.658,1.026,7.314,2.049,9.36,2.049c1.168,0,2.634-0.145,3.947-0.293h-0.144c2.484-0.585,3.801-0.148,3.801,2.339
	c-0.145,1.315-0.145,2.34-0.145,3.364c0,1.171,0,2.63,0.145,4.534c0,0.584,0.147,1.316,0.147,1.9
	c0.147,2.05,0.147,4.387,0.147,5.264c0,1.757-1.024,4.68-2.484,4.68c-1.319,0-2.635-1.314-3.805-3.069
	c-3.655-5.412-7.459-9.947-12.139-12.432h0.147c-7.019-3.508-14.626-5.264-22.521-5.264c-30.567,0-50.018,22.376-50.018,52.355
	c-0.292,29.687,20.474,58.497,46.36,58.497c7.459,0,27.785-4.681,29.396-16.672c0-0.877,0-3.362-0.147-4.679
	c-0.147-6.581-0.292-11.112-0.44-13.891c-0.291-4.535-0.875-8.192-1.752-9.947c-1.172-2.633-3.51-4.972-6.729-7.021v-0.729
	c7.457,0.729,13.309,1.023,17.11,1.023c2.341,0,8.189-0.587,11.992-0.878c0.586,0,2.926-0.146,3.365-0.146l-0.147,0.582
	c-4.826,2.487-6.142,7.313-6.872,29.982v15.062C383.418,345.976,382.831,348.609,380.785,349.051z"/>
<path d="M501.652,341.445c3.073,7.605,7.459,12.576,13.31,14.916v1.023c-6.583-1.023-12.286-1.607-17.551-1.607
	c-5.412,0-11.698,0.584-18.719,1.607v-1.172c0-0.436,0.878-1.752,2.341-3.946c1.605-2.341,2.339-4.094,2.339-5.558
	c0-2.047-0.585-4.239-1.022-5.704c-3.802-10.236-7.606-21.059-11.41-31.294h1.172c-7.458-0.731-13.894-1.025-19.159-1.025
	c-7.165,0-13.895,0.294-20.182,1.025h1.169c-4.24,11.261-8.773,22.666-13.012,33.928c-1.027,2.925-1.611,5.116-1.611,6.871
	c0,2.344,0.878,4.39,2.633,6.146v0.729c-5.264-0.729-9.654-1.172-13.31-1.172c-4.532,0-9.505,0.297-14.478,1.026l0.732-0.729
	c7.021-2.343,12.723-8.63,16.233-15.795c11.553-28.228,23.84-57.33,35.39-85.556c0.149-0.583,0.295-1.605,0.295-2.483
	c0-6-4.681-12.58-11.116-16.819l-0.291-0.732c5.41,0.584,13.602,0.878,19.012,0.878h5.263l6.729,17.109L501.652,341.445z
	 M467.724,301.956h0.147c-5.266-13.743-9.36-23.98-14.624-37.729c-5.119,12.578-10.387,25.154-15.505,37.729h0.147v0.732h-1.316
	c5.265,0.294,10.529,0.439,16.086,0.439c5.707,0,10.97-0.146,16.38-0.439h-1.315V301.956z"/>
<path fill="#079347" d="M534.645,232.47c10.777,22.046,17.391,42.255,17.391,60.994c0,20.327-6.613,42.495-17.391,66.866h-8.082
	c8.082-19.106,10.289-40.781,10.289-66.866c0-24.864-2.084-43.602-10.289-60.994H534.645z"/>
<g>
	<path d="M590.607,251.063c5.983-10.771,14.48-19.986,23.217-19.986c8.019,0,12.207,4.788,10.413,17.952l-4.189,30.877
		c-0.718,5.505,0.838,6.582,2.872,6.582c2.154,0,5.864-2.394,9.814-11.37l2.752,1.317c-3.351,9.574-8.977,16.875-18.311,16.875
		c-8.977,0-9.934-6.822-9.096-13.403l4.069-30.518c0.837-6.342,0-9.933-4.428-9.933c-5.864,0-17.473,13.403-19.388,26.927
		l-3.59,25.73h-11.969l6.464-47.511c0.718-5.505-0.719-6.583-2.753-6.583c-2.154,0-5.864,2.274-9.813,11.369l-2.753-1.316
		c3.351-9.574,8.975-16.994,18.311-16.994c8.976,0,9.814,6.941,8.976,13.403l-0.838,6.583H590.607z"/>
</g>
<g>
	<path fill="#079347" d="M714.899,325.711c0,23.494-15.322,32.052-38.196,32.284c-1.788,0-4.667-0.153-8.635-0.388
		c-3.967-0.234-6.842-0.389-8.633-0.389c-2.802,0-7.235,0.154-10.113,0.466v-0.544c1.401-0.701,2.799-1.868,4.12-3.657
		c1.092-1.478,1.714-3.034,1.793-4.667v-4.357c0.075-5.211,0.075-11.203,0.075-17.969c0-8.015-0.23-16.492-0.621-24.272
		c-0.234-2.956-2.334-6.068-6.301-8.714v-0.234c0.466,0,1.713,0.079,2.255,0.079c1.011,0.079,2.333,0.155,3.656,0.233
		c0.39,0,0.856,0.08,1.246,0.08c1.478,0.078,2.721,0.078,3.732,0.078c3.735,0,5.76-0.078,9.802-0.391
		c4.278-0.232,7.237-0.388,11.591-0.388C701.212,292.96,714.899,307.973,714.899,325.711z M663.947,298.405h0.39
		c-0.079,0.7-0.155,1.712-0.235,3.035c-0.076,0.467-0.076,0.854-0.076,1.089c0,0.544-0.078,1.168-0.078,1.712
		c-0.075,1.632-0.155,3.422-0.155,6.455c-0.077,2.412-0.077,7.624-0.077,15.561c0,7.233,0.232,15.014,0.622,23.338
		c0,0.312,0,0.546,0.075,0.934c0,0.077,0.08,0.233,0.08,0.387h-0.311c2.876,2.259,7.854,2.96,16.489,2.96
		c13.538,0,24.664-6.069,24.664-25.206c0-17.426-3.813-31.896-24.664-31.896C671.961,296.772,666.05,297.083,663.947,298.405z"/>
	<path fill="#079347" d="M734.416,293.894c1.013,0,2.1-0.077,3.266-0.077c1.714-0.078,3.581-0.078,4.359-0.078
		c8.869,0,16.491,4.433,16.491,14.625c-0.079,6.146-3.81,11.593-10.422,14.159h-0.159c9.958,1.788,17.425,7.779,17.425,17.502
		c0,12.992-10.732,17.583-22.79,17.583c-0.936,0-2.413,0-4.435-0.078c-1.091,0-3.112-0.078-4.437-0.078
		c-3.109-0.078-5.054-0.078-5.91-0.078c-2.802,0-6.922,0.156-9.803,0.469v-0.544c1.166-0.624,2.411-1.869,3.579-3.814
		c1.091-1.711,1.634-3.344,1.711-5.058c0.234-3.653,0.311-6.923,0.311-9.879c0.079-3.034,0.079-7.001,0.079-11.902
		c0-8.012-0.234-16.493-0.624-24.27c-0.232-3.892-1.244-6.459-4.82-8.405v-0.543c3.576,0.39,6.923,0.543,9.412,0.543
		C729.282,293.97,731.537,293.97,734.416,293.894z M734.183,352.861c1.558,0.932,4.512,1.4,8.87,1.4
		c7.777,0,13.146-4.122,13.146-12.137c0-8.556-5.059-16.57-16.804-16.57c-0.156,0-1.012,0-2.335-0.075
		c-1.242-0.079-3.421-0.157-5.055-0.157c0,1.711,0,6.612,0.078,9.102c0,1.321,0.077,2.566,0.077,3.733
		c0.075,3.19,0.075,7.003,0.075,9.104C732.236,350.217,732.858,352.082,734.183,352.861z M732.236,308.517
		c0,1.324,0,3.27,0.081,5.992c0,0.544,0.075,1.088,0.075,1.635c0.081,1.865,0.081,4.122,0.081,5.367c0.466,0,0.856,0,1.553,0.077
		c0.546,0,1.477,0.077,2.179,0.077c1.633,0.078,2.801,0.078,3.345,0.078c4.358,0,10.192-3.424,10.192-13.38
		c0-8.867-6.689-11.67-11.904-11.67c-0.933,0-2.255,0.079-3.967,0.233c-0.31,0-0.541,0.078-0.776,0.078
		c-0.155,0-0.311,0-0.468,0.079h0.387c-0.311,0.701-0.465,2.021-0.54,3.966c-0.081,0.856-0.081,1.401-0.081,1.635
		C732.317,304.55,732.236,306.496,732.236,308.517z"/>
</g>
</svg>
